<svg xmlns="http://www.w3.org/2000/svg" version="1.1" viewBox="-5.0 -10.0 110.0 135.0">
 <path d="m61.273 43.773c1.5469 0 2.9531 0.62891 3.9648 1.6406 1.0117 1.0117 1.6406 2.418 1.6406 3.9648s-0.62891 2.9492-1.6406 3.9648c-1.0117 1.0117-2.418 1.6406-3.9648 1.6406-1.5469 0-2.9492-0.62891-3.9609-1.6406s-1.6406-2.418-1.6406-3.9648 0.62891-2.9531 1.6406-3.9648c1.0117-1.0117 2.4141-1.6406 3.9609-1.6406zm1.8438 3.7617c-0.46875-0.46875-1.125-0.76172-1.8438-0.76172s-1.3711 0.29297-1.8398 0.76172-0.76172 1.125-0.76172 1.8438 0.29297 1.3711 0.76172 1.8438c0.46875 0.46875 1.1211 0.76172 1.8398 0.76172s1.375-0.29297 1.8438-0.76172 0.76172-1.125 0.76172-1.8438-0.29297-1.375-0.76172-1.8438zm-41.086-3.7617c1.5469 0 2.9492 0.62891 3.9648 1.6406 1.0117 1.0117 1.6406 2.418 1.6406 3.9648s-0.62891 2.9492-1.6406 3.9648c-1.0117 1.0117-2.418 1.6406-3.9648 1.6406s-2.9531-0.62891-3.9648-1.6406c-1.0117-1.0117-1.6406-2.418-1.6406-3.9648s0.62891-2.9531 1.6406-3.9648c1.0117-1.0117 2.418-1.6406 3.9648-1.6406zm1.8438 3.7617c-0.46875-0.46875-1.125-0.76172-1.8438-0.76172s-1.375 0.29297-1.8438 0.76172-0.76172 1.125-0.76172 1.8438 0.29297 1.3711 0.76172 1.8438c0.46875 0.46875 1.125 0.76172 1.8438 0.76172s1.3711-0.29297 1.8438-0.76172c0.46875-0.46875 0.76172-1.125 0.76172-1.8438s-0.29297-1.375-0.76172-1.8438zm17.777-3.7617c1.5469 0 2.9531 0.62891 3.9648 1.6406 1.0117 1.0117 1.6406 2.418 1.6406 3.9648s-0.62891 2.9492-1.6406 3.9648c-1.0117 1.0117-2.418 1.6406-3.9648 1.6406s-2.9492-0.62891-3.9648-1.6406c-1.0117-1.0117-1.6406-2.418-1.6406-3.9648s0.62891-2.9531 1.6406-3.9648c1.0117-1.0117 2.418-1.6406 3.9648-1.6406zm1.8438 3.7617c-0.46875-0.46875-1.125-0.76172-1.8438-0.76172s-1.3711 0.29297-1.8438 0.76172c-0.46875 0.46875-0.76172 1.125-0.76172 1.8438s0.29297 1.3711 0.76172 1.8438c0.46875 0.46875 1.125 0.76172 1.8438 0.76172s1.375-0.29297 1.8438-0.76172 0.76172-1.125 0.76172-1.8438-0.29297-1.375-0.76172-1.8438zm9.3242-38.816c7.1523 1.9609 13.547 5.7578 18.641 10.852 7.6289 7.6289 12.348 18.168 12.348 29.809 0 11.312-4.457 21.586-11.664 29.141 1.8125-0.57031 3.5-1.2539 5.1055-2.0391 0.44141-0.21484 0.9375-0.19531 1.3438 0.015625l13.527 7.0547-3.3555-15.09c-0.10547-0.46875 0.027344-0.9375 0.3125-1.2812 2.6758-3.2031 4.8125-6.875 6.2617-10.871 1.3945-3.8477 2.1562-8.0078 2.1562-12.352 0-10.004-4.0547-19.059-10.609-25.613-6.5547-6.5547-15.613-10.609-25.613-10.609-2.3711 0-4.6797 0.22656-6.9062 0.65625-0.51953 0.10156-1.0352 0.21094-1.5469 0.33594zm16.52 12.973c-7.0859-7.0859-16.875-11.469-27.688-11.469s-20.602 4.3828-27.684 11.469c-7.0859 7.0859-11.469 16.875-11.469 27.688 0 4.6953 0.82422 9.1953 2.332 13.352 1.5664 4.3203 3.875 8.2891 6.7695 11.75 0.28516 0.34766 0.41406 0.8125 0.3125 1.2852l-3.668 16.508 14.801-7.7227c0.41016-0.21094 0.91016-0.23047 1.3555-0.011719 2.6367 1.3008 5.4453 2.3086 8.375 2.9883 2.8438 0.66016 5.8164 1.0078 8.8828 1.0078 10.812 0 20.602-4.3828 27.688-11.469 7.0859-7.0859 11.469-16.875 11.469-27.688s-4.3828-20.602-11.469-27.688z"/>
<text x="0.0" y="117.5" font-size="5.0" font-weight="bold" font-family="Arbeit Regular, Helvetica, Arial-Unicode, Arial, Sans-serif" fill="#000000"></text><text x="0.0" y="122.5" font-size="5.0" font-weight="bold" font-family="Arbeit Regular, Helvetica, Arial-Unicode, Arial, Sans-serif" fill="#000000"></text></svg>