<svg xmlns="http://www.w3.org/2000/svg" xmlns:xlink="http://www.w3.org/1999/xlink" version="1.1" x="0px" y="0px" viewBox="0 0 100 125" style="enable-background:new 0 0 100 100;" xml:space="preserve"><g><path d="M32,82h10V64.1c0-2.2,1.8-4,4-4h8.3c2.2,0,4,1.8,4,4V82H68c3.3,0,6-2.7,6-6V44.5c0-1.6-0.6-3.1-1.8-4.2l-18-18   c-2.3-2.3-6.1-2.3-8.5,0l-18,18c-1.1,1.1-1.8,2.7-1.8,4.2V76C26,79.3,28.7,82,32,82z"/></g><text x="0" y="125" fill="#000000" font-size="5px" font-weight="bold" font-family="'Helvetica Neue', Helvetica, Arial-Unicode, Arial, Sans-serif"></text><text x="0" y="125" fill="#000000" font-size="5px" font-weight="bold" font-family="'Helvetica Neue', Helvetica, Arial-Unicode, Arial, Sans-serif"></text></svg>