<svg xmlns="http://www.w3.org/2000/svg" version="1.1" viewBox="-5.0 -10.0 110.0 135.0">
 <path d="m86.852 47.02-35.082-35.078c-0.96875-0.96875-2.5586-0.96875-3.5391 0l-35.082 35.078c-0.71875 0.71875-0.92969 1.7891-0.53906 2.7188 0.39062 0.92969 1.2891 1.5391 2.3086 1.5391h8.5898v31c0 3.5781 2.9219 6.5 6.5 6.5h40c3.5781 0 6.5-2.9219 6.5-6.5v-31h8.5898c1.0117 0 1.9219-0.60938 2.3086-1.5391 0.39062-0.92969 0.17969-2.0117-0.53906-2.7188zm-46.602 38.77v-20.5c0-0.82812 0.67188-1.5 1.5-1.5h16.5c0.82812 0 1.5 0.67188 1.5 1.5v20.5zm33.25-37.5v34c0 1.9297-1.5703 3.5-3.5 3.5h-7.25v-20.5c0-2.4805-2.0195-4.5-4.5-4.5h-16.5c-2.4805 0-4.5 2.0195-4.5 4.5v20.5h-7.25c-1.9297 0-3.5-1.5703-3.5-3.5v-34h-10.379l33.879-33.879 33.879 33.879z"/>
<text x="0.0" y="117.5" font-size="5.0" font-weight="bold" font-family="Arbeit Regular, Helvetica, Arial-Unicode, Arial, Sans-serif" fill="#000000"></text><text x="0.0" y="122.5" font-size="5.0" font-weight="bold" font-family="Arbeit Regular, Helvetica, Arial-Unicode, Arial, Sans-serif" fill="#000000"></text></svg>