<svg xmlns="http://www.w3.org/2000/svg" data-name="Layer 1" viewBox="0 0 100 125" x="0px" y="0px"><title></title><path d="M27,66.41a23.26,23.26,0,0,1-.89,8.35,5.39,5.39,0,0,0,7.6,6.35c5.13-2.59,11.91-7.06,16.13-13.93h3.24a32.83,32.83,0,1,0,0-65.65h-19A32.83,32.83,0,0,0,27,66.41ZM34.09,7.53h19a26.83,26.83,0,1,1,0,53.65h-5a3,3,0,0,0-2.66,1.6c-3.07,5.85-8.65,9.86-13.2,12.33a30,30,0,0,0,.47-11.7,3,3,0,0,0-2.53-2.52,26.83,26.83,0,0,1,3.9-53.37ZM93.62,48.6a24.23,24.23,0,0,1,5.11,15A24.61,24.61,0,0,1,80.16,87.3a15.77,15.77,0,0,0,.64,5.09A4.72,4.72,0,0,1,74.15,98c-3.69-1.87-8.54-5.05-11.69-9.94H60.6A24.37,24.37,0,0,1,47.31,84.1a3,3,0,0,1,3.26-5,18.39,18.39,0,0,0,10,3h3.59a3,3,0,0,1,2.66,1.61,20.72,20.72,0,0,0,7.57,7.6,22.76,22.76,0,0,1,0-6.88A3,3,0,0,1,77,81.83,18.55,18.55,0,0,0,92.73,63.56a18.28,18.28,0,0,0-3.86-11.29,3,3,0,0,1,4.74-3.67Z"/><text x="0" y="115" fill="#000000" font-size="5px" font-weight="bold" font-family="'Helvetica Neue', Helvetica, Arial-Unicode, Arial, Sans-serif"></text><text x="0" y="120" fill="#000000" font-size="5px" font-weight="bold" font-family="'Helvetica Neue', Helvetica, Arial-Unicode, Arial, Sans-serif"></text></svg>