<svg xmlns="http://www.w3.org/2000/svg" version="1.1" viewBox="-5.0 -10.0 110.0 135.0">
 <path d="m61.699 86.859c-2.3047 4.0938-6.6875 6.8594-11.715 6.8594s-9.4141-2.7656-11.715-6.8594c3.7422 0.14453 7.7305 0.21875 11.715 0.21875 3.9883 0 7.9727-0.074219 11.715-0.21875z" fill-rule="evenodd"/>
 <path d="m36.801 82.891c-3.3203-0.15234-6.4023-0.36328-9.0703-0.63281-8.1992-0.83203-18.953-3.5508-19.688-9.6797-0.78906-6.6016 3.2109-8.6445 4.7852-9.8398 2.707-2.0547 9.1172-5.5625 10.996-10.715 2.5-6.8477 1.9102-15.551 3.0977-26.152 2.2539-20.168 23.059-19.617 23.059-19.617s5.4102-0.14453 11.012 2.3906c-2.9219 3.2969-4.6953 7.6328-4.6953 12.379 0 9.9961 7.8711 18.172 17.75 18.656 0.3125 4.6328 0.77344 8.7461 2.0898 12.348 1.8828 5.1523 8.293 8.6602 10.996 10.715 1.5742 1.1953 5.5742 3.2422 4.7852 9.8398-0.73438 6.1289-11.488 8.8477-19.688 9.6797-2.6641 0.26953-5.75 0.48047-9.0703 0.63281-4.1523 0.1875-8.668 0.28125-13.18 0.28516-4.5156 0-9.0312-0.09375-13.184-0.28516z" fill-rule="evenodd"/>
 <path d="m89.75 21.02c0 8.1602-6.6133 14.773-14.773 14.773-8.1602 0-14.773-6.6133-14.773-14.773 0-8.1562 6.6133-14.77 14.773-14.77 8.1602 0 14.773 6.6133 14.773 14.77" fill-rule="evenodd"/>
<text x="0.0" y="117.5" font-size="5.0" font-weight="bold" font-family="Arbeit Regular, Helvetica, Arial-Unicode, Arial, Sans-serif" fill="#000000"></text><text x="0.0" y="122.5" font-size="5.0" font-weight="bold" font-family="Arbeit Regular, Helvetica, Arial-Unicode, Arial, Sans-serif" fill="#000000"></text></svg>