<svg xmlns="http://www.w3.org/2000/svg" version="1.1" viewBox="-5.0 -10.0 110.0 135.0">
 <path d="m50 31c5.0391 0 9.8711 2 13.434 5.5664 3.5664 3.5625 5.5664 8.3945 5.5664 13.434s-2 9.8711-5.5664 13.434c-3.5625 3.5664-8.3945 5.5664-13.434 5.5664s-9.8711-2-13.434-5.5664c-3.5664-3.5625-5.5664-8.3945-5.5664-13.434s2-9.8711 5.5664-13.434c3.5625-3.5664 8.3945-5.5664 13.434-5.5664zm-17.141 50.391c1.2734-1.0781 3.0391-1.3594 4.582-0.72656 1.543 0.62891 2.6055 2.0664 2.7578 3.7266l0.60938 6.6094c0.20703 2.3633 2.0703 4.25 4.4297 4.4805 3.2852 0.35547 6.5977 0.35547 9.8828 0 2.3594-0.25 4.2109-2.1445 4.3984-4.5117l0.55859-6.6211v0.003906c0.13672-1.6641 1.1875-3.1133 2.7266-3.7578 1.5391-0.64453 3.3086-0.375 4.5859 0.69531l5.1016 4.2383-0.003907 0.003906c1.832 1.5156 4.4805 1.5156 6.3125 0 2.5781-2.0781 4.9258-4.4219 7-7 1.4922-1.8477 1.4609-4.4961-0.082031-6.3008l-4.2812-5.0703h0.003906c-1.0781-1.2734-1.3594-3.0391-0.72656-4.582 0.62891-1.543 2.0664-2.6055 3.7266-2.7578l6.5586-0.62891c2.3633-0.20703 4.25-2.0703 4.4805-4.4297 0.35547-3.2852 0.35547-6.5977 0-9.8828-0.25-2.3594-2.1445-4.2109-4.5117-4.3984l-6.6211-0.55859h0.003906c-1.6641-0.13672-3.1133-1.1875-3.7578-2.7266-0.64453-1.5391-0.375-3.3086 0.69531-4.5859l4.2383-5.1016 0.003906 0.003907c1.5156-1.832 1.5156-4.4805 0-6.3125-2.0781-2.5586-4.4258-4.8906-7-6.9492-1.8477-1.4922-4.4961-1.4609-6.3008 0.078125l-5.0703 4.2812c-1.2734 1.0781-3.0391 1.3594-4.582 0.72656-1.543-0.62891-2.6055-2.0664-2.7578-3.7266l-0.62891-6.6094c-0.20703-2.3633-2.0703-4.25-4.4297-4.4805-3.2852-0.35547-6.5977-0.35547-9.8828 0-2.3594 0.25-4.2109 2.1445-4.3984 4.5117l-0.55859 6.6211v-0.003906c-0.13672 1.6641-1.1875 3.1133-2.7266 3.7578-1.5391 0.64453-3.3086 0.375-4.5859-0.69531l-5.1016-4.2383 0.003907-0.003906c-1.832-1.5156-4.4805-1.5156-6.3125 0-2.5586 2.0781-4.8906 4.4258-6.9492 7-1.4922 1.8477-1.4609 4.4961 0.078125 6.3008l4.2812 5.0703c1.0781 1.2734 1.3594 3.0391 0.72656 4.582-0.62891 1.543-2.0664 2.6055-3.7266 2.7578l-6.6094 0.62891c-2.3633 0.20703-4.25 2.0703-4.4805 4.4297-0.35547 3.2852-0.35547 6.5977 0 9.8828 0.25 2.3594 2.1445 4.2109 4.5117 4.3984l6.6211 0.55859h-0.003906c1.6641 0.13672 3.1133 1.1875 3.7578 2.7266 0.64453 1.5391 0.375 3.3086-0.69531 4.5859l-4.2383 5.1016-0.003906-0.003907c-1.5156 1.832-1.5156 4.4805 0 6.3125 2.0781 2.5781 4.4219 4.9258 7 7 1.8477 1.4922 4.4961 1.4609 6.3008-0.082031z"  fill-rule="evenodd"/>
<text x="0.0" y="117.5" font-size="5.0" font-weight="bold" font-family="Arbeit Regular, Helvetica, Arial-Unicode, Arial, Sans-serif" fill="#000000"></text><text x="0.0" y="122.5" font-size="5.0" font-weight="bold" font-family="Arbeit Regular, Helvetica, Arial-Unicode, Arial, Sans-serif" fill="#000000"></text></svg>